<svg width="50" height="50" version="1.1" xmlns:xlink="http://www.w3.org/1999/xlink" xmlns="http://www.w3.org/2000/svg">
    <g id="svgg">
    <path id="path0" d="M0.000 200.000 L 0.000 400.000 200.000 400.000 L 400.000 400.000 400.000 200.000 L 400.000 0.000 200.000 0.000 L 0.000 0.000 0.000 200.000 M376.400 200.000 L 376.400 379.600 198.400 379.600 L 20.400 379.600 20.400 200.000 L 20.400 20.400 198.400 20.400 L 376.400 20.400 376.400 200.000 M33.200 124.400 L 33.200 142.000 70.987 142.000 C 113.960 142.000,110.063 141.599,106.010 145.600 C 104.784 146.810,103.339 148.425,102.800 149.188 C 102.261 149.952,100.600 151.811,99.110 153.319 C 97.619 154.827,96.400 156.237,96.400 156.453 C 96.400 156.668,95.361 157.869,94.090 159.122 C 92.820 160.375,91.339 162.030,90.800 162.800 C 90.261 163.570,88.821 165.190,87.600 166.400 C 86.379 167.610,84.939 169.225,84.400 169.988 C 83.861 170.752,82.200 172.611,80.710 174.119 C 79.219 175.627,78.000 177.037,78.000 177.253 C 78.000 177.468,76.920 178.704,75.600 180.000 L 73.200 182.356 73.200 197.378 L 73.200 212.400 86.776 212.400 C 95.396 212.400,100.443 212.546,100.600 212.800 C 100.736 213.020,102.007 213.200,103.424 213.200 C 104.875 213.200,106.000 213.375,106.000 213.600 C 106.000 213.820,106.709 214.000,107.576 214.000 C 108.443 214.000,109.264 214.180,109.400 214.400 C 109.536 214.620,110.076 214.800,110.600 214.800 C 111.124 214.800,111.664 214.980,111.800 215.200 C 111.936 215.420,112.487 215.600,113.024 215.600 C 113.561 215.600,114.000 215.780,114.000 216.000 C 114.000 216.220,114.360 216.400,114.800 216.400 C 115.240 216.400,115.600 216.580,115.600 216.800 C 115.600 217.020,115.960 217.200,116.400 217.200 C 116.840 217.200,117.200 217.350,117.200 217.532 C 117.200 217.715,117.693 218.120,118.295 218.432 C 119.804 219.214,122.800 222.245,122.800 222.989 C 122.800 223.325,122.935 223.601,123.100 223.603 C 123.459 223.607,124.400 225.544,124.400 226.280 C 124.400 226.566,124.580 226.800,124.800 226.800 C 125.020 226.800,125.200 227.340,125.200 228.000 C 125.200 228.660,125.380 229.200,125.600 229.200 C 125.844 229.200,126.000 231.067,126.000 234.000 C 126.000 236.933,125.844 238.800,125.600 238.800 C 125.380 238.800,125.200 239.340,125.200 240.000 C 125.200 240.660,125.020 241.200,124.800 241.200 C 124.580 241.200,124.400 241.560,124.400 242.000 C 124.400 242.440,124.220 242.800,124.000 242.800 C 123.780 242.800,123.600 243.160,123.600 243.600 C 123.600 244.040,123.450 244.400,123.268 244.400 C 123.085 244.400,122.680 244.894,122.368 245.497 C 121.640 246.903,119.703 248.840,118.297 249.568 C 117.694 249.880,117.200 250.285,117.200 250.468 C 117.200 250.650,116.964 250.800,116.675 250.800 C 116.387 250.800,115.764 251.160,115.292 251.600 C 114.820 252.040,114.167 252.400,113.840 252.400 C 113.514 252.400,113.136 252.580,113.000 252.800 C 112.864 253.020,112.313 253.200,111.776 253.200 C 111.239 253.200,110.800 253.380,110.800 253.600 C 110.800 253.820,110.260 254.000,109.600 254.000 C 108.940 254.000,108.400 254.180,108.400 254.400 C 108.400 254.620,107.781 254.800,107.024 254.800 C 106.267 254.800,105.536 254.980,105.400 255.200 C 105.264 255.420,104.263 255.600,103.176 255.600 C 102.089 255.600,101.200 255.780,101.200 256.000 C 101.200 256.255,98.008 256.400,92.424 256.400 C 87.004 256.400,83.553 256.247,83.400 256.000 C 83.264 255.780,82.004 255.600,80.600 255.600 C 79.196 255.600,77.936 255.420,77.800 255.200 C 77.664 254.980,76.764 254.800,75.800 254.800 C 74.836 254.800,73.936 254.620,73.800 254.400 C 73.664 254.180,72.854 254.000,72.000 254.000 C 71.146 254.000,70.336 253.820,70.200 253.600 C 70.064 253.380,69.423 253.200,68.776 253.200 C 68.129 253.200,67.600 253.020,67.600 252.800 C 67.600 252.580,67.071 252.400,66.424 252.400 C 65.777 252.400,65.136 252.220,65.000 252.000 C 64.864 251.780,64.324 251.600,63.800 251.600 C 63.276 251.600,62.736 251.420,62.600 251.200 C 62.464 250.980,61.913 250.800,61.376 250.800 C 60.839 250.800,60.400 250.620,60.400 250.400 C 60.400 250.180,59.961 250.000,59.424 250.000 C 58.887 250.000,58.336 249.820,58.200 249.600 C 58.064 249.380,57.603 249.200,57.176 249.200 C 56.749 249.200,56.400 249.020,56.400 248.800 C 56.400 248.580,56.040 248.400,55.600 248.400 C 55.160 248.400,54.800 248.220,54.800 248.000 C 54.800 247.780,54.440 247.600,54.000 247.600 C 53.560 247.600,53.200 247.420,53.200 247.200 C 53.200 246.980,52.840 246.800,52.400 246.800 C 51.960 246.800,51.600 246.620,51.600 246.400 C 51.600 246.180,51.240 246.000,50.800 246.000 C 50.360 246.000,50.000 245.820,50.000 245.600 C 50.000 245.380,49.640 245.200,49.200 245.200 C 48.760 245.200,48.400 245.050,48.400 244.868 C 48.400 244.685,47.905 244.280,47.300 243.968 C 46.695 243.655,45.851 243.085,45.425 242.700 C 44.998 242.315,44.453 242.000,44.213 242.000 C 43.973 242.000,43.517 241.640,43.200 241.200 C 42.798 240.643,42.165 240.400,41.112 240.400 C 39.867 240.400,39.600 240.541,39.600 241.200 C 39.600 241.640,39.420 242.000,39.200 242.000 C 38.980 242.000,38.800 242.360,38.800 242.800 C 38.800 243.240,38.620 243.600,38.400 243.600 C 38.180 243.600,38.000 243.960,38.000 244.400 C 38.000 244.840,37.820 245.200,37.600 245.200 C 37.380 245.200,37.200 245.560,37.200 246.000 C 37.200 246.440,37.020 246.800,36.800 246.800 C 36.580 246.800,36.400 247.160,36.400 247.600 C 36.400 248.040,36.220 248.400,36.000 248.400 C 35.780 248.400,35.600 248.760,35.600 249.200 C 35.600 249.640,35.420 250.000,35.200 250.000 C 34.980 250.000,34.800 250.360,34.800 250.800 C 34.800 251.240,34.620 251.600,34.400 251.600 C 34.180 251.600,34.000 251.960,34.000 252.400 C 34.000 252.840,33.820 253.200,33.600 253.200 C 33.380 253.200,33.200 253.560,33.200 254.000 C 33.200 254.440,33.020 254.800,32.800 254.800 C 32.580 254.800,32.400 255.160,32.400 255.600 C 32.400 256.040,32.220 256.400,32.000 256.400 C 31.780 256.400,31.600 256.760,31.600 257.200 C 31.600 257.640,31.420 258.000,31.200 258.000 C 30.980 258.000,30.800 258.360,30.800 258.800 C 30.800 259.240,30.620 259.600,30.400 259.600 C 30.180 259.600,30.000 259.960,30.000 260.400 C 30.000 260.840,29.820 261.200,29.600 261.200 C 29.380 261.200,29.200 261.560,29.200 262.000 C 29.200 262.440,29.020 262.800,28.800 262.800 C 28.580 262.800,28.400 263.160,28.400 263.600 C 28.400 264.040,28.220 264.400,28.000 264.400 C 27.780 264.400,27.600 264.745,27.600 265.167 C 27.600 265.588,27.463 265.993,27.296 266.067 C 26.945 266.221,23.592 272.825,23.597 273.353 C 23.601 273.768,25.654 275.599,26.117 275.600 C 26.291 275.600,26.820 275.960,27.292 276.400 C 27.764 276.840,28.387 277.200,28.675 277.200 C 28.964 277.200,29.200 277.380,29.200 277.600 C 29.200 277.820,29.560 278.000,30.000 278.000 C 30.440 278.000,30.801 278.135,30.803 278.300 C 30.805 278.465,31.210 278.801,31.703 279.046 C 33.446 279.912,37.809 282.096,38.495 282.446 C 38.877 282.641,39.462 282.800,39.795 282.800 C 40.128 282.800,40.400 282.980,40.400 283.200 C 40.400 283.420,40.760 283.600,41.200 283.600 C 41.640 283.600,42.000 283.780,42.000 284.000 C 42.000 284.220,42.540 284.400,43.200 284.400 C 43.860 284.400,44.400 284.580,44.400 284.800 C 44.400 285.020,44.749 285.200,45.176 285.200 C 45.603 285.200,46.064 285.380,46.200 285.600 C 46.336 285.820,46.876 286.000,47.400 286.000 C 47.924 286.000,48.464 286.180,48.600 286.400 C 48.736 286.620,49.276 286.800,49.800 286.800 C 50.324 286.800,50.864 286.980,51.000 287.200 C 51.136 287.420,51.867 287.600,52.624 287.600 C 53.381 287.600,54.000 287.780,54.000 288.000 C 54.000 288.220,54.619 288.400,55.376 288.400 C 56.133 288.400,56.864 288.580,57.000 288.800 C 57.136 289.020,57.766 289.200,58.400 289.200 C 59.034 289.200,59.664 289.380,59.800 289.600 C 59.936 289.820,60.847 290.000,61.824 290.000 C 62.801 290.000,63.600 290.180,63.600 290.400 C 63.600 290.620,64.500 290.800,65.600 290.800 C 66.700 290.800,67.600 290.980,67.600 291.200 C 67.600 291.422,68.667 291.600,70.000 291.600 C 71.333 291.600,72.400 291.778,72.400 292.000 C 72.400 292.233,73.733 292.400,75.600 292.400 C 77.467 292.400,78.800 292.567,78.800 292.800 C 78.800 293.059,84.000 293.200,93.600 293.200 C 103.200 293.200,108.400 293.059,108.400 292.800 C 108.400 292.569,109.659 292.400,111.376 292.400 C 113.013 292.400,114.464 292.220,114.600 292.000 C 114.736 291.780,115.737 291.600,116.824 291.600 C 117.911 291.600,118.800 291.420,118.800 291.200 C 118.800 290.980,119.599 290.800,120.576 290.800 C 121.553 290.800,122.464 290.620,122.600 290.400 C 122.736 290.180,123.377 290.000,124.024 290.000 C 124.671 290.000,125.200 289.820,125.200 289.600 C 125.200 289.380,125.729 289.200,126.376 289.200 C 127.023 289.200,127.664 289.020,127.800 288.800 C 127.936 288.580,128.487 288.400,129.024 288.400 C 129.561 288.400,130.000 288.220,130.000 288.000 C 130.000 287.780,130.540 287.600,131.200 287.600 C 131.860 287.600,132.400 287.420,132.400 287.200 C 132.400 286.980,132.672 286.800,133.005 286.800 C 133.338 286.800,133.968 286.620,134.405 286.400 C 134.842 286.180,135.558 285.820,135.995 285.600 C 136.432 285.380,137.062 285.200,137.395 285.200 C 137.728 285.200,138.000 285.020,138.000 284.800 C 138.000 284.580,138.360 284.400,138.800 284.400 C 139.240 284.400,139.600 284.220,139.600 284.000 C 139.600 283.780,139.836 283.600,140.125 283.600 C 140.413 283.600,141.036 283.240,141.508 282.800 C 141.980 282.360,142.644 282.000,142.983 282.000 C 143.322 282.000,143.600 281.820,143.600 281.600 C 143.600 281.380,143.836 281.200,144.125 281.200 C 144.413 281.200,145.036 280.840,145.508 280.400 C 145.980 279.960,146.516 279.600,146.699 279.600 C 146.882 279.600,147.828 278.880,148.800 278.000 C 149.772 277.120,150.720 276.400,150.906 276.400 C 151.395 276.400,158.800 268.814,158.800 268.314 C 158.800 268.083,159.116 267.603,159.503 267.247 C 159.889 266.891,160.460 266.105,160.770 265.500 C 161.081 264.895,161.485 264.400,161.668 264.400 C 161.850 264.400,162.000 264.040,162.000 263.600 C 162.000 263.160,162.153 262.800,162.340 262.800 C 162.527 262.800,163.266 261.585,163.982 260.100 C 164.698 258.615,165.445 257.087,165.642 256.705 C 165.839 256.323,166.000 255.738,166.000 255.405 C 166.000 255.072,166.180 254.800,166.400 254.800 C 166.620 254.800,166.800 254.260,166.800 253.600 C 166.800 252.940,166.980 252.400,167.200 252.400 C 167.420 252.400,167.600 251.860,167.600 251.200 C 167.600 250.540,167.780 250.000,168.000 250.000 C 168.220 250.000,168.400 249.280,168.400 248.400 C 168.400 247.520,168.580 246.800,168.800 246.800 C 169.020 246.800,169.200 245.900,169.200 244.800 C 169.200 243.700,169.380 242.800,169.600 242.800 C 169.855 242.800,170.000 239.600,170.000 234.000 C 170.000 228.400,169.855 225.200,169.600 225.200 C 169.378 225.200,169.200 224.133,169.200 222.800 C 169.200 221.467,169.022 220.400,168.800 220.400 C 168.580 220.400,168.400 219.781,168.400 219.024 C 168.400 218.267,168.220 217.536,168.000 217.400 C 167.780 217.264,167.600 216.623,167.600 215.976 C 167.600 215.329,167.420 214.800,167.200 214.800 C 166.980 214.800,166.800 214.440,166.800 214.000 C 166.800 213.560,166.620 213.200,166.400 213.200 C 166.180 213.200,166.000 212.761,166.000 212.224 C 166.000 211.687,165.820 211.136,165.600 211.000 C 165.380 210.864,165.200 210.403,165.200 209.976 C 165.200 209.549,165.020 209.200,164.800 209.200 C 164.580 209.200,164.400 208.964,164.400 208.675 C 164.400 208.387,164.040 207.764,163.600 207.292 C 163.160 206.820,162.800 206.156,162.800 205.817 C 162.800 205.478,162.650 205.200,162.468 205.200 C 162.285 205.200,161.880 204.708,161.568 204.107 C 161.255 203.506,160.505 202.489,159.900 201.848 C 159.295 201.206,158.800 200.516,158.800 200.313 C 158.800 199.820,152.826 194.000,152.319 194.000 C 152.100 194.000,151.417 193.460,150.800 192.800 C 150.183 192.140,149.431 191.600,149.128 191.600 C 148.825 191.600,148.317 191.240,148.000 190.800 C 147.683 190.360,147.103 190.000,146.712 190.000 C 146.320 190.000,146.000 189.820,146.000 189.600 C 146.000 189.380,145.655 189.200,145.233 189.200 C 144.812 189.200,144.407 189.065,144.333 188.900 C 144.141 188.468,140.828 186.800,140.162 186.800 C 139.853 186.800,139.600 186.620,139.600 186.400 C 139.600 186.180,139.240 186.000,138.800 186.000 C 138.360 186.000,138.000 185.820,138.000 185.600 C 138.000 185.380,137.460 185.200,136.800 185.200 C 136.140 185.200,135.600 185.020,135.600 184.800 C 135.600 184.580,135.161 184.400,134.624 184.400 C 134.087 184.400,133.536 184.220,133.400 184.000 C 133.264 183.780,132.623 183.600,131.976 183.600 C 131.329 183.600,130.800 183.420,130.800 183.200 C 130.800 182.980,130.181 182.800,129.424 182.800 C 128.667 182.800,127.936 182.620,127.800 182.400 C 127.664 182.180,126.843 182.000,125.976 182.000 C 125.109 182.000,124.400 181.820,124.400 181.600 C 124.400 181.380,123.860 181.200,123.200 181.200 C 121.617 181.200,121.621 181.190,124.400 178.368 C 125.720 177.027,126.800 175.767,126.800 175.568 C 126.800 175.369,128.060 173.931,129.600 172.372 C 131.140 170.814,132.400 169.363,132.400 169.147 C 132.400 168.932,133.439 167.731,134.710 166.478 C 135.980 165.225,137.460 163.570,137.999 162.800 C 138.537 162.030,139.798 160.590,140.800 159.600 C 141.802 158.610,143.062 157.170,143.600 156.400 C 144.138 155.630,145.398 154.190,146.400 153.200 C 147.402 152.210,148.663 150.775,149.201 150.012 C 149.740 149.248,151.400 147.389,152.890 145.881 C 154.381 144.373,155.600 142.974,155.600 142.772 C 155.600 142.571,156.860 141.131,158.400 139.572 C 159.940 138.014,161.200 136.483,161.200 136.169 C 161.200 135.856,161.380 135.600,161.600 135.600 C 161.859 135.600,162.000 130.533,162.000 121.200 L 162.000 106.800 97.600 106.800 L 33.200 106.800 33.200 124.400 M199.067 107.067 C 198.544 107.590,198.756 289.796,199.280 290.320 C 199.906 290.946,294.800 291.025,294.800 290.400 C 294.800 290.146,297.867 290.000,303.200 290.000 C 308.533 290.000,311.600 289.854,311.600 289.600 C 311.600 289.369,312.859 289.200,314.576 289.200 C 316.213 289.200,317.664 289.020,317.800 288.800 C 317.936 288.580,318.926 288.400,320.000 288.400 C 321.074 288.400,322.064 288.220,322.200 288.000 C 322.336 287.780,323.247 287.600,324.224 287.600 C 325.201 287.600,326.000 287.420,326.000 287.200 C 326.000 286.980,326.720 286.800,327.600 286.800 C 328.480 286.800,329.200 286.620,329.200 286.400 C 329.200 286.180,329.729 286.000,330.376 286.000 C 331.023 286.000,331.664 285.820,331.800 285.600 C 331.936 285.380,332.476 285.200,333.000 285.200 C 333.524 285.200,334.064 285.020,334.200 284.800 C 334.336 284.580,334.887 284.400,335.424 284.400 C 335.961 284.400,336.400 284.220,336.400 284.000 C 336.400 283.780,336.940 283.600,337.600 283.600 C 338.260 283.600,338.800 283.420,338.800 283.200 C 338.800 282.980,339.160 282.800,339.600 282.800 C 340.040 282.800,340.400 282.620,340.400 282.400 C 340.400 282.180,340.760 282.000,341.200 282.000 C 341.640 282.000,342.000 281.820,342.000 281.600 C 342.000 281.380,342.360 281.200,342.800 281.200 C 343.240 281.200,343.600 281.020,343.600 280.800 C 343.600 280.580,343.960 280.400,344.400 280.400 C 344.840 280.400,345.200 280.220,345.200 280.000 C 345.200 279.780,345.436 279.600,345.725 279.600 C 346.013 279.600,346.636 279.240,347.108 278.800 C 347.580 278.360,348.172 278.000,348.423 278.000 C 348.674 278.000,349.383 277.460,350.000 276.800 C 350.617 276.140,351.321 275.600,351.566 275.600 C 352.060 275.600,358.799 268.991,358.801 268.506 C 358.801 268.338,359.341 267.570,360.000 266.800 C 360.659 266.030,361.199 265.175,361.199 264.900 C 361.200 264.625,361.380 264.400,361.600 264.400 C 361.820 264.400,362.000 264.040,362.000 263.600 C 362.000 263.160,362.180 262.800,362.400 262.800 C 362.620 262.800,362.800 262.440,362.800 262.000 C 362.800 261.560,362.980 261.200,363.200 261.200 C 363.420 261.200,363.600 260.840,363.600 260.400 C 363.600 259.960,363.780 259.600,364.000 259.600 C 364.220 259.600,364.400 259.240,364.400 258.800 C 364.400 258.360,364.580 258.000,364.800 258.000 C 365.020 258.000,365.200 257.460,365.200 256.800 C 365.200 256.140,365.380 255.600,365.600 255.600 C 365.820 255.600,366.000 254.880,366.000 254.000 C 366.000 253.120,366.180 252.400,366.400 252.400 C 366.620 252.400,366.800 251.511,366.800 250.424 C 366.800 249.337,366.980 248.336,367.200 248.200 C 367.446 248.048,367.600 244.796,367.600 239.776 C 367.600 234.592,367.454 231.600,367.200 231.600 C 366.980 231.600,366.800 230.621,366.800 229.424 C 366.800 228.227,366.620 227.136,366.400 227.000 C 366.180 226.864,366.000 226.234,366.000 225.600 C 366.000 224.966,365.820 224.336,365.600 224.200 C 365.380 224.064,365.200 223.524,365.200 223.000 C 365.200 222.476,365.020 221.936,364.800 221.800 C 364.580 221.664,364.400 221.113,364.400 220.576 C 364.400 220.039,364.220 219.600,364.000 219.600 C 363.780 219.600,363.600 219.240,363.600 218.800 C 363.600 218.360,363.420 218.000,363.200 218.000 C 362.980 218.000,362.800 217.640,362.800 217.200 C 362.800 216.760,362.620 216.400,362.400 216.400 C 362.180 216.400,362.000 216.040,362.000 215.600 C 362.000 215.160,361.820 214.800,361.600 214.800 C 361.380 214.800,361.200 214.575,361.199 214.300 C 361.199 214.025,360.659 213.170,360.000 212.400 C 359.341 211.630,358.801 210.863,358.801 210.695 C 358.799 210.166,350.434 202.000,349.893 202.000 C 349.609 202.000,349.117 201.640,348.800 201.200 C 348.483 200.760,347.943 200.400,347.600 200.400 C 347.257 200.400,346.717 200.040,346.400 199.600 C 346.083 199.160,345.503 198.800,345.112 198.800 C 344.720 198.800,344.400 198.620,344.400 198.400 C 344.400 198.180,344.040 198.000,343.600 198.000 C 343.160 198.000,342.800 197.820,342.800 197.600 C 342.800 197.380,342.440 197.200,342.000 197.200 C 341.560 197.200,341.200 197.020,341.200 196.800 C 341.200 196.580,340.851 196.400,340.424 196.400 C 339.997 196.400,339.536 196.220,339.400 196.000 C 339.264 195.780,338.791 195.600,338.348 195.600 C 337.037 195.600,336.067 194.412,337.148 194.130 C 337.616 194.007,338.000 193.748,338.000 193.553 C 338.000 193.359,338.243 193.200,338.541 193.200 C 338.838 193.200,339.646 192.660,340.337 192.000 C 341.028 191.340,341.777 190.800,342.002 190.800 C 342.536 190.800,349.200 184.136,349.200 183.602 C 349.200 183.377,349.740 182.628,350.400 181.937 C 351.060 181.246,351.600 180.438,351.600 180.141 C 351.600 179.843,351.780 179.600,352.000 179.600 C 352.220 179.600,352.400 179.240,352.400 178.800 C 352.400 178.360,352.547 178.000,352.726 178.000 C 353.192 178.000,354.800 174.869,354.800 173.962 C 354.800 173.543,354.980 173.200,355.200 173.200 C 355.420 173.200,355.600 172.840,355.600 172.400 C 355.600 171.960,355.780 171.600,356.000 171.600 C 356.220 171.600,356.400 171.071,356.400 170.424 C 356.400 169.777,356.580 169.136,356.800 169.000 C 357.020 168.864,357.200 168.144,357.200 167.400 C 357.200 166.656,357.380 165.936,357.600 165.800 C 357.820 165.664,358.000 164.314,358.000 162.800 C 358.000 161.286,358.180 159.936,358.400 159.800 C 358.631 159.658,358.800 157.529,358.800 154.776 C 358.800 151.859,358.644 150.000,358.400 150.000 C 358.171 150.000,358.000 148.800,358.000 147.200 C 358.000 145.600,357.829 144.400,357.600 144.400 C 357.380 144.400,357.200 143.680,357.200 142.800 C 357.200 141.920,357.020 141.200,356.800 141.200 C 356.580 141.200,356.400 140.660,356.400 140.000 C 356.400 139.340,356.220 138.800,356.000 138.800 C 355.780 138.800,355.600 138.528,355.600 138.195 C 355.600 137.549,355.329 136.914,354.236 135.000 C 353.859 134.340,353.451 133.485,353.329 133.100 C 353.207 132.715,352.948 132.400,352.753 132.400 C 352.559 132.400,352.400 132.080,352.400 131.688 C 352.400 131.297,352.040 130.717,351.600 130.400 C 351.160 130.083,350.800 129.608,350.800 129.345 C 350.800 128.789,343.423 121.200,342.882 121.200 C 342.682 121.200,341.954 120.660,341.263 120.000 C 340.572 119.340,339.775 118.800,339.492 118.800 C 339.209 118.800,338.717 118.440,338.400 118.000 C 338.083 117.560,337.503 117.200,337.112 117.200 C 336.720 117.200,336.400 117.020,336.400 116.800 C 336.400 116.580,336.040 116.400,335.600 116.400 C 335.160 116.400,334.800 116.220,334.800 116.000 C 334.800 115.780,334.440 115.600,334.000 115.600 C 333.560 115.600,333.200 115.420,333.200 115.200 C 333.200 114.980,332.840 114.800,332.400 114.800 C 331.960 114.800,331.600 114.620,331.600 114.400 C 331.600 114.180,331.240 114.000,330.800 114.000 C 330.360 114.000,330.000 113.820,330.000 113.600 C 330.000 113.380,329.561 113.200,329.024 113.200 C 328.487 113.200,327.936 113.020,327.800 112.800 C 327.664 112.580,327.203 112.400,326.776 112.400 C 326.349 112.400,326.000 112.220,326.000 112.000 C 326.000 111.780,325.471 111.600,324.824 111.600 C 324.177 111.600,323.536 111.420,323.400 111.200 C 323.264 110.980,322.533 110.800,321.776 110.800 C 321.019 110.800,320.400 110.620,320.400 110.400 C 320.400 110.180,319.680 110.000,318.800 110.000 C 317.920 110.000,317.200 109.820,317.200 109.600 C 317.200 109.380,316.300 109.200,315.200 109.200 C 314.100 109.200,313.200 109.020,313.200 108.800 C 313.200 108.578,312.133 108.400,310.800 108.400 C 309.467 108.400,308.400 108.222,308.400 108.000 C 308.400 107.762,306.875 107.600,304.624 107.600 C 302.537 107.600,300.737 107.421,300.600 107.200 C 300.321 106.749,199.517 106.616,199.067 107.067 M293.200 140.800 C 293.200 141.020,294.100 141.200,295.200 141.200 C 296.300 141.200,297.200 141.380,297.200 141.600 C 297.200 141.820,297.920 142.000,298.800 142.000 C 299.680 142.000,300.400 142.180,300.400 142.400 C 300.400 142.620,300.672 142.800,301.005 142.800 C 301.338 142.800,301.968 142.980,302.405 143.200 C 302.842 143.420,303.560 143.780,304.000 144.000 C 305.578 144.789,306.572 145.411,307.355 146.100 C 307.793 146.485,308.321 146.800,308.529 146.800 C 309.007 146.800,310.799 148.861,310.800 149.412 C 310.800 149.638,311.160 150.083,311.600 150.400 C 312.040 150.717,312.400 151.297,312.400 151.688 C 312.400 152.080,312.580 152.400,312.800 152.400 C 313.020 152.400,313.200 152.839,313.200 153.376 C 313.200 153.913,313.380 154.464,313.600 154.600 C 313.820 154.736,314.000 155.557,314.000 156.424 C 314.000 157.291,314.180 158.000,314.400 158.000 C 314.622 158.000,314.800 159.059,314.800 160.376 C 314.800 161.683,314.620 162.864,314.400 163.000 C 314.180 163.136,314.000 164.047,314.000 165.024 C 314.000 166.001,313.820 166.800,313.600 166.800 C 313.380 166.800,313.196 167.205,313.191 167.700 C 313.186 168.195,312.830 169.050,312.400 169.600 C 311.970 170.150,311.614 170.738,311.609 170.907 C 311.592 171.495,306.411 176.400,305.807 176.400 C 305.473 176.400,305.200 176.580,305.200 176.800 C 305.200 177.020,304.840 177.200,304.400 177.200 C 303.960 177.200,303.600 177.380,303.600 177.600 C 303.600 177.820,303.240 178.000,302.800 178.000 C 302.360 178.000,302.000 178.180,302.000 178.400 C 302.000 178.620,301.460 178.800,300.800 178.800 C 300.140 178.800,299.600 178.980,299.600 179.200 C 299.600 179.420,299.060 179.600,298.400 179.600 C 297.740 179.600,297.200 179.780,297.200 180.000 C 297.200 180.220,296.221 180.400,295.024 180.400 C 293.827 180.400,292.736 180.580,292.600 180.800 C 292.439 181.060,283.663 181.200,267.576 181.200 L 242.800 181.200 242.800 160.800 L 242.800 140.400 268.000 140.400 C 284.533 140.400,293.200 140.538,293.200 140.800 M301.200 214.400 C 301.200 214.620,302.100 214.800,303.200 214.800 C 304.300 214.800,305.200 214.980,305.200 215.200 C 305.200 215.420,305.920 215.600,306.800 215.600 C 307.680 215.600,308.400 215.780,308.400 216.000 C 308.400 216.220,308.839 216.400,309.376 216.400 C 309.913 216.400,310.464 216.580,310.600 216.800 C 310.736 217.020,311.197 217.200,311.624 217.200 C 312.051 217.200,312.400 217.380,312.400 217.600 C 312.400 217.820,312.760 218.000,313.200 218.000 C 313.640 218.000,314.000 218.150,314.000 218.332 C 314.000 218.515,314.492 218.920,315.094 219.232 C 316.506 219.965,320.035 223.494,320.768 224.906 C 321.080 225.508,321.485 226.000,321.668 226.000 C 321.850 226.000,322.000 226.540,322.000 227.200 C 322.000 227.860,322.180 228.400,322.400 228.400 C 322.620 228.400,322.800 228.940,322.800 229.600 C 322.800 230.260,322.980 230.800,323.200 230.800 C 323.444 230.800,323.600 232.667,323.600 235.600 C 323.600 238.533,323.444 240.400,323.200 240.400 C 322.980 240.400,322.800 240.940,322.800 241.600 C 322.800 242.260,322.620 242.800,322.400 242.800 C 322.180 242.800,322.000 243.034,322.000 243.320 C 322.000 244.056,321.059 245.993,320.700 245.997 C 320.535 245.999,320.400 246.275,320.400 246.611 C 320.400 247.355,317.404 250.386,315.895 251.168 C 315.293 251.480,314.800 251.885,314.800 252.068 C 314.800 252.250,314.440 252.400,314.000 252.400 C 313.560 252.400,313.200 252.580,313.200 252.800 C 313.200 253.020,312.840 253.200,312.400 253.200 C 311.960 253.200,311.600 253.380,311.600 253.600 C 311.600 253.820,311.161 254.000,310.624 254.000 C 310.087 254.000,309.536 254.180,309.400 254.400 C 309.264 254.620,308.623 254.800,307.976 254.800 C 307.329 254.800,306.800 254.980,306.800 255.200 C 306.800 255.420,306.091 255.600,305.224 255.600 C 304.357 255.600,303.536 255.780,303.400 256.000 C 303.264 256.220,301.813 256.400,300.176 256.400 C 298.459 256.400,297.200 256.569,297.200 256.800 C 297.200 257.063,287.867 257.200,270.000 257.200 L 242.800 257.200 242.800 235.600 L 242.800 214.000 272.000 214.000 C 291.200 214.000,301.200 214.137,301.200 214.400 " stroke="none" fill="#04cc74" fill-rule="evenodd"></path>
    <path id="path1" d="" stroke="none" fill="#08cc74" fill-rule="evenodd"></path>
    <path id="path2" d="" stroke="none" fill="#08cc74" fill-rule="evenodd"></path>
    <path id="path3" d="" stroke="none" fill="#08cc74" fill-rule="evenodd"></path>
    <path id="path4" d="" stroke="none" fill="#08cc74" fill-rule="evenodd"></path>
    <path id="path5" d="" stroke="none" fill="#08cc74" fill-rule="evenodd"></path>
    <path id="path6" d="" stroke="none" fill="#08cc74" fill-rule="evenodd"></path>
  </g>
</svg>
